<svg width="7" height="5" viewBox="0 0 7 5" fill="none" xmlns="http://www.w3.org/2000/svg">
<path d="M6 4V0H5V0.5H4V1.5H5V4H4V5H7V4H6Z" fill="#FFD347"/>
<path d="M2 5H1C0.734784 5 0.48043 4.89464 0.292893 4.70711C0.105357 4.51957 0 4.26522 0 4V1C0 0.734784 0.105357 0.48043 0.292893 0.292893C0.48043 0.105357 0.734784 0 1 0H2C2.26522 0 2.51957 0.105357 2.70711 0.292893C2.89464 0.48043 3 0.734784 3 1V4C3 4.26522 2.89464 4.51957 2.70711 4.70711C2.51957 4.89464 2.26522 5 2 5ZM1 1V4H2V1H1Z" fill="#FFD347"/>
</svg>
