<svg width="8" height="5" viewBox="0 0 8 5" fill="none" xmlns="http://www.w3.org/2000/svg">
<path d="M2.25 5H1.125C0.826631 5 0.540484 4.89464 0.329505 4.70711C0.118527 4.51957 0 4.26522 0 4V1C0 0.734784 0.118527 0.48043 0.329505 0.292893C0.540484 0.105357 0.826631 0 1.125 0H2.25C2.54837 0 2.83452 0.105357 3.04549 0.292893C3.25647 0.48043 3.375 0.734784 3.375 1V4C3.375 4.26522 3.25647 4.51957 3.04549 4.70711C2.83452 4.89464 2.54837 5 2.25 5ZM1.125 1V4H2.25V1H1.125Z" fill="#FFD347"/>
<path d="M7.45 5H4.45V3C4.45 2.73478 4.55535 2.48043 4.74289 2.29289C4.93043 2.10536 5.18478 2 5.45 2H6.45V1H4.45V0H6.45C6.71521 0 6.96957 0.105357 7.1571 0.292893C7.34464 0.48043 7.45 0.734784 7.45 1V2C7.45 2.26522 7.34464 2.51957 7.1571 2.70711C6.96957 2.89464 6.71521 3 6.45 3H5.45V4H7.45V5Z" fill="#FFD347"/>
</svg>
