<svg width="118" height="101" viewBox="0 0 118 101" fill="none" xmlns="http://www.w3.org/2000/svg">
<path d="M55.5 16C40.3365 16 28 28.3365 28 43.5C28 58.6635 40.3365 71 55.5 71C70.6635 71 83 58.6635 83 43.5C83 28.3365 70.6635 16 55.5 16Z" fill="#FFD347"/>
<path d="M55.5 71.0625C48.19 71.0625 41.1793 68.1586 36.0104 62.9896C30.8414 57.8207 27.9375 50.81 27.9375 43.5C27.9375 36.19 30.8414 29.1793 36.0104 24.0104C41.1793 18.8414 48.19 15.9375 55.5 15.9375C62.81 15.9375 69.8207 18.8414 74.9896 24.0104C80.1586 29.1793 83.0625 36.19 83.0625 43.5C83.0625 50.81 80.1586 57.8207 74.9896 62.9896C69.8207 68.1586 62.81 71.0625 55.5 71.0625ZM55.5 75C63.8543 75 71.8665 71.6813 77.7739 65.7739C83.6813 59.8665 87 51.8543 87 43.5C87 35.1457 83.6813 27.1335 77.7739 21.2261C71.8665 15.3187 63.8543 12 55.5 12C47.1457 12 39.1335 15.3187 33.2261 21.2261C27.3187 27.1335 24 35.1457 24 43.5C24 51.8543 27.3187 59.8665 33.2261 65.7739C39.1335 71.6813 47.1457 75 55.5 75V75Z" fill="white"/>
<path d="M86.375 51.5H84.75V43.0547C84.75 42.0625 84.232 41.1094 83.318 40.4062L73.1719 32.6016C72.2578 31.8984 71.0188 31.5 69.7289 31.5H65.25V27.75C65.25 25.6797 63.0664 24 60.375 24H34.375C31.6836 24 29.5 25.6797 29.5 27.75V31.5H23.8125C23.3656 31.5 23 31.7812 23 32.125V33.375C23 33.7188 23.3656 34 23.8125 34H51.4375C51.8844 34 52.25 34.2812 52.25 34.625V35.875C52.25 36.2188 51.8844 36.5 51.4375 36.5H27.0625C26.6156 36.5 26.25 36.7812 26.25 37.125V38.375C26.25 38.7188 26.6156 39 27.0625 39H48.1875C48.6344 39 49 39.2812 49 39.625V40.875C49 41.2188 48.6344 41.5 48.1875 41.5H23.8125C23.3656 41.5 23 41.7812 23 42.125V43.375C23 43.7188 23.3656 44 23.8125 44H44.9375C45.3844 44 45.75 44.2812 45.75 44.625V45.875C45.75 46.2188 45.3844 46.5 44.9375 46.5H29.5V56.5C29.5 60.6406 33.8672 64 39.25 64C44.6328 64 49 60.6406 49 56.5H62C62 60.6406 66.3672 64 71.75 64C77.1328 64 81.5 60.6406 81.5 56.5H86.375C87.2688 56.5 88 55.9375 88 55.25V52.75C88 52.0625 87.2688 51.5 86.375 51.5ZM39.25 60.25C36.5586 60.25 34.375 58.5703 34.375 56.5C34.375 54.4297 36.5586 52.75 39.25 52.75C41.9414 52.75 44.125 54.4297 44.125 56.5C44.125 58.5703 41.9414 60.25 39.25 60.25ZM71.75 60.25C69.0586 60.25 66.875 58.5703 66.875 56.5C66.875 54.4297 69.0586 52.75 71.75 52.75C74.4414 52.75 76.625 54.4297 76.625 56.5C76.625 58.5703 74.4414 60.25 71.75 60.25ZM79.875 44H65.25V35.25H69.7289L79.875 43.0547V44Z" fill="#262121"/>
</svg>
