<svg width="63" height="65" viewBox="0 0 63 65" fill="none" xmlns="http://www.w3.org/2000/svg">
<path d="M31.5 60.0625C24.19 60.0625 17.1793 57.1586 12.0104 51.9896C6.8414 46.8207 3.9375 39.81 3.9375 32.5C3.9375 25.19 6.8414 18.1793 12.0104 13.0104C17.1793 7.8414 24.19 4.9375 31.5 4.9375C38.81 4.9375 45.8207 7.8414 50.9896 13.0104C56.1586 18.1793 59.0625 25.19 59.0625 32.5C59.0625 39.81 56.1586 46.8207 50.9896 51.9896C45.8207 57.1586 38.81 60.0625 31.5 60.0625ZM31.5 64C39.8543 64 47.8665 60.6813 53.7739 54.7739C59.6813 48.8665 63 40.8543 63 32.5C63 24.1457 59.6813 16.1335 53.7739 10.2261C47.8665 4.31874 39.8543 1 31.5 1C23.1457 1 15.1335 4.31874 9.22614 10.2261C3.31874 16.1335 0 24.1457 0 32.5C0 40.8543 3.31874 48.8665 9.22614 54.7739C15.1335 60.6813 23.1457 64 31.5 64V64Z" fill="white"/>
<path d="M31.5 5C16.3365 5 4 17.3365 4 32.5C4 47.6635 16.3365 60 31.5 60C46.6635 60 59 47.6635 59 32.5C59 17.3365 46.6635 5 31.5 5Z" fill="#FFD347"/>
<path d="M39.375 38.5938H35.4375V34.5312H27.5625V38.5938H23.625V34.5312C23.626 33.4541 24.0412 32.4215 24.7794 31.6598C25.5176 30.8982 26.5185 30.4698 27.5625 30.4688H35.4375C36.4815 30.4698 37.4824 30.8982 38.2206 31.6598C38.9588 32.4215 39.374 33.4541 39.375 34.5312V38.5938Z" fill="#262121"/>
<path d="M31.5 28.4375C30.3319 28.4375 29.1899 28.0801 28.2187 27.4105C27.2474 26.7409 26.4904 25.7892 26.0433 24.6757C25.5963 23.5622 25.4793 22.337 25.7072 21.1549C25.9351 19.9729 26.4976 18.887 27.3237 18.0348C28.1497 17.1826 29.2021 16.6022 30.3478 16.3671C31.4935 16.132 32.681 16.2526 33.7602 16.7139C34.8395 17.1751 35.7619 17.9561 36.4109 18.9582C37.0599 19.9604 37.4062 21.1385 37.4062 22.3438C37.4047 23.9594 36.7819 25.5085 35.6746 26.6509C34.5673 27.7934 33.066 28.4359 31.5 28.4375ZM31.5 20.3125C31.1106 20.3125 30.73 20.4316 30.4062 20.6548C30.0825 20.878 29.8301 21.1953 29.6811 21.5664C29.5321 21.9376 29.4931 22.346 29.5691 22.74C29.645 23.1341 29.8326 23.496 30.1079 23.7801C30.3832 24.0641 30.734 24.2576 31.1159 24.336C31.4978 24.4144 31.8937 24.3741 32.2534 24.2204C32.6132 24.0666 32.9206 23.8063 33.137 23.4723C33.3533 23.1382 33.4688 22.7455 33.4688 22.3438C33.4682 21.8052 33.2606 21.2889 32.8915 20.908C32.5224 20.5272 32.022 20.313 31.5 20.3125Z" fill="#262121"/>
<path d="M31.5 60.9375L14.8916 40.7286C14.6609 40.4251 14.4325 40.1198 14.2065 39.8125C11.3695 35.9567 9.83689 31.2472 9.84377 26.4062C9.84377 20.4803 12.1254 14.7971 16.1867 10.6068C20.2481 6.41657 25.7564 4.0625 31.5 4.0625C37.2436 4.0625 42.752 6.41657 46.8133 10.6068C50.8746 14.7971 53.1563 20.4803 53.1563 26.4062C53.1631 31.245 51.6312 35.9524 48.7955 39.8064L48.7935 39.8125C48.7935 39.8125 48.2029 40.6128 48.1143 40.7205L31.5 60.9375ZM17.3486 37.3648C17.3526 37.3648 17.8093 37.9905 17.9137 38.1245L31.5 54.6569L45.1041 38.1022C45.1907 37.9905 45.6514 37.3608 45.6534 37.3588C47.9709 34.2085 49.2233 30.3612 49.2188 26.4062C49.2188 21.5578 47.352 16.9079 44.0291 13.4795C40.7062 10.0511 36.1993 8.125 31.5 8.125C26.8007 8.125 22.2939 10.0511 18.971 13.4795C15.6481 16.9079 13.7813 21.5578 13.7813 26.4062C13.7771 30.3636 15.031 34.2132 17.3506 37.3648H17.3486Z" fill="#262121"/>
</svg>
