<svg width="63" height="63" viewBox="0 0 63 63" fill="none" xmlns="http://www.w3.org/2000/svg">
<path d="M31.5 59.0625C24.19 59.0625 17.1793 56.1586 12.0104 50.9896C6.8414 45.8207 3.9375 38.81 3.9375 31.5C3.9375 24.19 6.8414 17.1793 12.0104 12.0104C17.1793 6.8414 24.19 3.9375 31.5 3.9375C38.81 3.9375 45.8207 6.8414 50.9896 12.0104C56.1586 17.1793 59.0625 24.19 59.0625 31.5C59.0625 38.81 56.1586 45.8207 50.9896 50.9896C45.8207 56.1586 38.81 59.0625 31.5 59.0625ZM31.5 63C39.8543 63 47.8665 59.6813 53.7739 53.7739C59.6813 47.8665 63 39.8543 63 31.5C63 23.1457 59.6813 15.1335 53.7739 9.22614C47.8665 3.31874 39.8543 0 31.5 0C23.1457 0 15.1335 3.31874 9.22614 9.22614C3.31874 15.1335 0 23.1457 0 31.5C0 39.8543 3.31874 47.8665 9.22614 53.7739C15.1335 59.6813 23.1457 63 31.5 63V63Z" fill="white"/>
<path d="M31.5 4C16.3365 4 4 16.3365 4 31.5C4 46.6635 16.3365 59 31.5 59C46.6635 59 59 46.6635 59 31.5C59 16.3365 46.6635 4 31.5 4Z" fill="#FFD347"/>
<path d="M31.5 0C28.0787 0 25.4438 2.85453 25.4438 6.26771C25.4438 9.55521 25.4208 12.4316 25.4208 12.4316H19.3376C19.2231 12.4316 19.1123 12.4442 19.0031 12.4623H17.3112V18.3724H45.6888V12.4623H43.9969C43.8877 12.4442 43.7769 12.4316 43.6624 12.4316H37.5793C37.5793 12.4316 37.6485 9.82779 37.6485 6.28693C37.6485 2.99938 34.9213 0 31.5 0ZM9.19775 5.99471V63H53.8022V5.99471H39.6711V10.1245H49.7187V58.8626H13.2852V10.1245H23.3289V5.99471H9.19775ZM31.5 6.07157C32.6209 6.07157 33.5265 6.97352 33.5265 8.0903C33.5265 9.20913 32.6209 10.1129 31.5 10.1129C30.3791 10.1129 29.4736 9.20908 29.4736 8.0903C29.4736 6.97357 30.3791 6.07157 31.5 6.07157ZM17.3112 22.3792V24.4017H19.3376V22.3792H17.3112ZM23.3943 22.4176V24.4402H45.6888V22.4176H23.3943ZM17.3112 30.0081V32.0306H19.3376V30.0081H17.3112ZM23.3943 30.0465V32.0729H45.6888V30.0465H23.3943ZM17.3112 37.637V39.6595H19.3376V37.637H17.3112ZM23.3943 37.6792V39.7018H45.6888V37.6792H23.3943V37.6792ZM17.3112 45.2697V47.2923H19.3376V45.2697H17.3112ZM23.3943 45.312V47.3346H45.6888V45.312H23.3943ZM17.3112 52.8986V54.9212H19.3376V52.8986H17.3112V52.8986ZM23.3943 52.9409V54.9635H45.6888V52.9409H23.3943Z" fill="#262121"/>
</svg>
