<svg width="16" height="16" viewBox="0 0 16 16" fill="none" xmlns="http://www.w3.org/2000/svg">
<path d="M10.1649 10.74L11.2849 9.62C11.4358 9.47103 11.6267 9.36905 11.8343 9.32644C12.042 9.28384 12.2576 9.30245 12.4549 9.38001L13.8199 9.925C14.0193 10.0059 14.1903 10.1441 14.3113 10.3221C14.4324 10.5 14.498 10.7098 14.4999 10.925V13.425C14.4988 13.5714 14.468 13.716 14.4095 13.8502C14.3509 13.9844 14.2659 14.1054 14.1594 14.2058C14.0528 14.3062 13.9271 14.3841 13.7897 14.4346C13.6523 14.4852 13.5061 14.5074 13.3599 14.5C3.79494 13.905 1.86494 5.805 1.49994 2.70501C1.483 2.55277 1.49848 2.39868 1.54537 2.25286C1.59226 2.10704 1.66949 1.9728 1.77198 1.85897C1.87447 1.74514 1.9999 1.65431 2.14002 1.59244C2.28014 1.53057 2.43178 1.49907 2.58494 1.50001H4.99994C5.21545 1.50064 5.42584 1.56574 5.60404 1.68692C5.78225 1.8081 5.92013 1.97983 5.99994 2.18001L6.54494 3.54501C6.62507 3.74154 6.64551 3.95733 6.60372 4.16541C6.56192 4.3735 6.45975 4.56465 6.30994 4.71501L5.18994 5.83501C5.18994 5.83501 5.83494 10.2 10.1649 10.74Z" fill="black"/>
</svg>
