<svg width="62" height="62" viewBox="0 0 62 62" fill="none" xmlns="http://www.w3.org/2000/svg">
<path d="M31 58.125C23.806 58.125 16.9067 55.2672 11.8197 50.1803C6.7328 45.0933 3.875 38.194 3.875 31C3.875 23.806 6.7328 16.9067 11.8197 11.8197C16.9067 6.7328 23.806 3.875 31 3.875C38.194 3.875 45.0933 6.7328 50.1803 11.8197C55.2672 16.9067 58.125 23.806 58.125 31C58.125 38.194 55.2672 45.0933 50.1803 50.1803C45.0933 55.2672 38.194 58.125 31 58.125ZM31 62C39.2217 62 47.1067 58.7339 52.9203 52.9203C58.7339 47.1067 62 39.2217 62 31C62 22.7783 58.7339 14.8933 52.9203 9.07969C47.1067 3.26606 39.2217 0 31 0C22.7783 0 14.8933 3.26606 9.07969 9.07969C3.26606 14.8933 0 22.7783 0 31C0 39.2217 3.26606 47.1067 9.07969 52.9203C14.8933 58.7339 22.7783 62 31 62V62Z" fill="white"/>
<path d="M31 4C16.1122 4 4 16.3365 4 31.5C4 46.6635 16.1122 59 31 59C45.8878 59 58 46.6635 58 31.5C58 16.3365 45.8878 4 31 4Z" fill="#FFD347"/>
<path d="M15.3002 14.0022L13 16.4265L18.0604 23.896C18.2734 24.2105 18.5547 24.4669 18.8808 24.6436C19.2069 24.8203 19.5683 24.9122 19.935 24.9118H20.096C20.3984 24.9116 20.6979 24.9742 20.9774 25.0961C21.2568 25.2179 21.5107 25.3967 21.7245 25.6222L27.8775 32.1073L21.8579 38.5416C20.8284 38.2222 19.7423 38.16 18.686 38.36C17.6297 38.56 16.6321 39.0168 15.7724 39.6939C14.9127 40.3711 14.2145 41.2501 13.7333 42.2612C13.2521 43.2723 13.001 44.3877 13 45.5189C13.0014 46.5613 13.2153 47.5911 13.6273 48.5387C14.0393 49.4862 14.6397 50.3294 15.3878 51.0111C16.136 51.6927 17.0144 52.1969 17.9636 52.4895C18.9127 52.7821 19.9105 52.8562 20.8892 52.7068C21.868 52.5575 22.8048 52.1882 23.6363 51.6239C24.4677 51.0596 25.1744 50.3135 25.7084 49.4362C26.2425 48.5589 26.5913 47.5709 26.7314 46.5391C26.8715 45.5072 26.7995 44.4557 26.5204 43.4558L32.625 37.1112L34.8516 39.458L34.15 41.6739C34.0152 42.101 33.9959 42.5592 34.0942 42.9973C34.1925 43.4353 34.4046 43.8358 34.7067 44.154L42.426 52.2902C42.8574 52.7447 43.4423 53 44.0523 53C44.6622 53 45.2471 52.7447 45.6785 52.2902L49.3265 48.4451C49.7578 47.9905 50 47.374 50 46.7311C50 46.0883 49.7578 45.4717 49.3265 45.0171L41.6072 36.8809C41.3053 36.5625 40.9253 36.339 40.5097 36.2354C40.0941 36.1318 39.6593 36.1521 39.2541 36.2942L37.1518 37.0336L34.9436 34.7062L41.108 28.2987C42.1307 28.5864 43.2023 28.6227 44.2404 28.4049C45.2784 28.187 46.2552 27.7208 47.0953 27.0422C47.9353 26.3636 48.6163 25.4907 49.0858 24.4909C49.5552 23.491 49.8004 22.3908 49.8027 21.2753C49.8027 20.6231 49.7222 19.9903 49.5681 19.3915L44.6457 24.5821L40.602 23.6996L39.7647 19.44L44.6894 14.2495C43.5179 13.9175 42.2841 13.9168 41.1123 14.2477C39.9405 14.5785 38.8722 15.229 38.015 16.1337C37.1578 17.0385 36.542 18.1654 36.2297 19.4009C35.9175 20.6364 35.9197 21.9368 36.2363 23.1711L30.1638 29.6636L24.0247 23.1978C23.5933 22.7432 23.3509 22.1267 23.3508 21.4838V21.3116C23.3508 20.9256 23.2634 20.5451 23.0957 20.2018C22.9281 19.8586 22.6851 19.5625 22.387 19.3382L15.3002 14.0022ZM37.4876 39.812C37.5944 39.6991 37.7213 39.6095 37.8611 39.5484C38.0008 39.4873 38.1506 39.4558 38.3018 39.4558C38.4531 39.4558 38.6029 39.4873 38.7426 39.5484C38.8824 39.6095 39.0093 39.6991 39.1161 39.812L46.0166 47.0851C46.1235 47.1978 46.2084 47.3316 46.2662 47.4788C46.3241 47.6261 46.3539 47.7839 46.3539 47.9433C46.3539 48.1027 46.3241 48.2605 46.2662 48.4078C46.2084 48.555 46.1235 48.6888 46.0166 48.8015C45.9097 48.9142 45.7827 49.0036 45.643 49.0646C45.5033 49.1256 45.3536 49.157 45.2023 49.157C45.0511 49.157 44.9014 49.1256 44.7617 49.0646C44.622 49.0036 44.495 48.9142 44.3881 48.8015L37.4876 41.5284C37.3805 41.4158 37.2955 41.282 37.2375 41.1348C37.1795 40.9875 37.1497 40.8296 37.1497 40.6702C37.1497 40.5107 37.1795 40.3529 37.2375 40.2056C37.2955 40.0583 37.3805 39.9246 37.4876 39.812ZM19.9005 40.6702L20.9839 41.2569L22.2007 41.3199L22.8608 42.3988L23.8844 43.0946L23.9442 44.377L24.5008 45.5189L23.9442 46.6608L23.8844 47.9433L22.8608 48.6391L22.2007 49.7179L20.9839 49.781L19.9005 50.3677L18.8171 49.781L17.6003 49.7179L16.9402 48.6391L15.9166 47.9433L15.8568 46.6608L15.3002 45.5189L15.8568 44.377L15.9166 43.0946L16.9402 42.3988L17.6003 41.3199L18.8171 41.2569L19.9005 40.6702Z" fill="#262121"/>
</svg>
