<svg width="63" height="63" viewBox="0 0 63 63" fill="none" xmlns="http://www.w3.org/2000/svg">
<path d="M31.5 59.0625C24.19 59.0625 17.1793 56.1586 12.0104 50.9896C6.8414 45.8207 3.9375 38.81 3.9375 31.5C3.9375 24.19 6.8414 17.1793 12.0104 12.0104C17.1793 6.8414 24.19 3.9375 31.5 3.9375C38.81 3.9375 45.8207 6.8414 50.9896 12.0104C56.1586 17.1793 59.0625 24.19 59.0625 31.5C59.0625 38.81 56.1586 45.8207 50.9896 50.9896C45.8207 56.1586 38.81 59.0625 31.5 59.0625ZM31.5 63C39.8543 63 47.8665 59.6813 53.7739 53.7739C59.6813 47.8665 63 39.8543 63 31.5C63 23.1457 59.6813 15.1335 53.7739 9.22614C47.8665 3.31874 39.8543 0 31.5 0C23.1457 0 15.1335 3.31874 9.22614 9.22614C3.31874 15.1335 0 23.1457 0 31.5C0 39.8543 3.31874 47.8665 9.22614 53.7739C15.1335 59.6813 23.1457 63 31.5 63V63Z" fill="white"/>
<path d="M31.5 4C16.3365 4 4 16.3365 4 31.5C4 46.6635 16.3365 59 31.5 59C46.6635 59 59 46.6635 59 31.5C59 16.3365 46.6635 4 31.5 4Z" fill="#FFD347"/>
<path d="M11.8125 9.00162L9 11.8141L15.1875 20.4794C15.448 20.8443 15.7919 21.1417 16.1907 21.3467C16.5894 21.5517 17.0313 21.6584 17.4797 21.6579H17.6766C18.0463 21.6576 18.4126 21.7302 18.7542 21.8716C19.0959 22.013 19.4064 22.2204 19.6678 22.4819L27.1912 30.0054L19.8309 37.4697C18.572 37.0992 17.2441 37.027 15.9525 37.2591C14.6609 37.4911 13.4411 38.021 12.3899 38.8066C11.3387 39.5921 10.4851 40.6119 9.89663 41.7849C9.30821 42.9579 9.00122 44.2518 9 45.5641C9.00169 46.7733 9.26326 47.968 9.767 49.0673C10.2707 50.1666 11.0049 51.1448 11.9197 51.9355C12.8345 52.7263 13.9085 53.3112 15.0691 53.6506C16.2297 53.9901 17.4497 54.0761 18.6464 53.9028C19.8432 53.7295 20.9887 53.3011 22.0054 52.6464C23.022 51.9918 23.8861 51.1263 24.5391 50.1085C25.192 49.0908 25.6186 47.9446 25.7899 46.7476C25.9612 45.5506 25.8732 44.3307 25.5319 43.1707L32.9962 35.8104L35.7188 38.5329L34.8609 41.1035C34.6961 41.599 34.6725 42.1306 34.7927 42.6387C34.9129 43.1469 35.1722 43.6116 35.5416 43.9807L44.9803 53.4194C45.5077 53.9467 46.223 54.2429 46.9688 54.2429C47.7145 54.2429 48.4298 53.9467 48.9572 53.4194L53.4178 48.9588C53.9451 48.4314 54.2413 47.7161 54.2413 46.9704C54.2413 46.2246 53.9451 45.5094 53.4178 44.9819L43.9791 35.5432C43.6099 35.1738 43.1453 34.9145 42.6371 34.7943C42.129 34.6741 41.5974 34.6977 41.1019 34.8626L38.5312 35.7204L35.8312 33.0204L43.3688 25.5869C44.6192 25.9207 45.9295 25.9629 47.1988 25.7102C48.4681 25.4574 49.6623 24.9166 50.6895 24.1294C51.7167 23.3421 52.5494 22.3295 53.1234 21.1695C53.6974 20.0096 53.9973 18.7333 54 17.4391C54 16.6826 53.9016 15.9485 53.7131 15.2538L47.6944 21.2754L42.75 20.2516L41.7262 15.3101L47.7478 9.28849C46.3154 8.90335 44.8067 8.90263 43.374 9.28641C41.9412 9.67018 40.6349 10.4249 39.5867 11.4745C38.5386 12.524 37.7857 13.8313 37.4038 15.2646C37.022 16.698 37.0248 18.2066 37.4119 19.6385L29.9869 27.1704L22.4803 19.6694C21.9528 19.1421 21.6564 18.4269 21.6562 17.681V17.4813C21.6563 17.0334 21.5494 16.592 21.3444 16.1938C21.1394 15.7956 20.8423 15.4521 20.4778 15.1919L11.8125 9.00162ZM38.9419 38.9435C39.0725 38.8125 39.2277 38.7086 39.3985 38.6377C39.5694 38.5668 39.7525 38.5304 39.9375 38.5304C40.1225 38.5304 40.3056 38.5668 40.4765 38.6377C40.6473 38.7086 40.8025 38.8125 40.9331 38.9435L49.3706 47.381C49.5014 47.5117 49.6051 47.667 49.6758 47.8378C49.7466 48.0086 49.783 48.1917 49.783 48.3766C49.783 48.5615 49.7466 48.7446 49.6758 48.9154C49.6051 49.0863 49.5014 49.2415 49.3706 49.3722C49.2399 49.503 49.0847 49.6067 48.9138 49.6775C48.743 49.7482 48.5599 49.7846 48.375 49.7846C48.1901 49.7846 48.007 49.7482 47.8362 49.6775C47.6653 49.6067 47.5101 49.503 47.3794 49.3722L38.9419 40.9347C38.8109 40.8041 38.707 40.6489 38.6361 40.4781C38.5652 40.3072 38.5287 40.1241 38.5287 39.9391C38.5287 39.7541 38.5652 39.571 38.6361 39.4001C38.707 39.2293 38.8109 39.0741 38.9419 38.9435ZM17.4375 39.9391L18.7622 40.6197L20.25 40.6929L21.0572 41.9444L22.3087 42.7516L22.3819 44.2394L23.0625 45.5641L22.3819 46.8888L22.3087 48.3766L21.0572 49.1838L20.25 50.4354L18.7622 50.5085L17.4375 51.1891L16.1128 50.5085L14.625 50.4354L13.8178 49.1838L12.5663 48.3766L12.4931 46.8888L11.8125 45.5641L12.4931 44.2394L12.5663 42.7516L13.8178 41.9444L14.625 40.6929L16.1128 40.6197L17.4375 39.9391Z" fill="#262121"/>
</svg>
